<svg width="30" height="30" viewBox="0 0 30 30" fill="none" xmlns="http://www.w3.org/2000/svg">
<g clip-path="url(#clip0_516_2010)">
<g clip-path="url(#clip1_516_2010)">
<path d="M19.3429 4.83594H9.67142C7.00072 4.83594 4.83569 7.00097 4.83569 9.67166V19.3431C4.83569 22.0138 7.00072 24.1788 9.67142 24.1788H19.3429C22.0136 24.1788 24.1786 22.0138 24.1786 19.3431V9.67166C24.1786 7.00097 22.0136 4.83594 19.3429 4.83594Z" stroke="#398D78" stroke-width="2.41786" stroke-linecap="round" stroke-linejoin="round"/>
<path d="M14.5072 18.134C16.5102 18.134 18.134 16.5102 18.134 14.5072C18.134 12.5041 16.5102 10.8804 14.5072 10.8804C12.5041 10.8804 10.8804 12.5041 10.8804 14.5072C10.8804 16.5102 12.5041 18.134 14.5072 18.134Z" stroke="#398D78" stroke-width="2.41786" stroke-linecap="round" stroke-linejoin="round"/>
<path d="M19.9473 9.06738V9.06859" stroke="#398D78" stroke-width="2.41786" stroke-linecap="round" stroke-linejoin="round"/>
</g>
</g>
<defs>
<clipPath id="clip0_516_2010">
<rect width="29.0144" height="29.0144" fill="white"/>
</clipPath>
<clipPath id="clip1_516_2010">
<rect width="29.0144" height="29.0144" fill="white"/>
</clipPath>
</defs>
</svg>
