<svg width="30" height="30" viewBox="0 0 30 30" fill="none" xmlns="http://www.w3.org/2000/svg">
<g clip-path="url(#clip0_516_2012)">
<g clip-path="url(#clip1_516_2012)">
<path d="M26.6254 4.84806C25.4165 5.44044 24.2317 5.68102 22.9986 6.0449C21.6434 4.51561 19.6342 4.43098 17.7035 5.15392C15.7728 5.87686 14.5083 7.64432 14.5361 9.6717V10.8806C10.6131 10.981 7.1193 9.19417 4.86464 6.0449C4.86464 6.0449 -0.191112 15.0309 9.70037 19.3432C7.43725 20.8507 5.18017 21.8674 2.44678 21.761C6.44592 23.9407 10.8041 24.6903 14.5772 23.595C18.9052 22.3377 22.4618 19.0941 23.8267 14.2354C24.2339 12.7577 24.4361 11.2311 24.4276 9.6983C24.4252 9.39727 26.2531 6.34714 26.6254 4.84685V4.84806Z" stroke="#398D78" stroke-width="2.41786" stroke-linecap="round" stroke-linejoin="round"/>
</g>
</g>
<defs>
<clipPath id="clip0_516_2012">
<rect width="29.0144" height="29.0144" fill="white" transform="translate(0.0288086)"/>
</clipPath>
<clipPath id="clip1_516_2012">
<rect width="29.0144" height="29.0144" fill="white" transform="translate(0.0288086)"/>
</clipPath>
</defs>
</svg>
