<svg width="52" height="38" viewBox="0 0 52 38" fill="none" xmlns="http://www.w3.org/2000/svg">
<g clip-path="url(#clip0_435_1226)">
<path fill-rule="evenodd" clip-rule="evenodd" d="M44.8899 0.5C46.9994 0.5 48.9468 1.47348 50.2452 3.09637C51.5436 4.71925 51.9763 6.82888 51.5431 8.88451L48.0273 24.0846C47.27 27.1681 44.5653 29.3317 41.3739 29.3317H33.0438L29.3113 35.6066C28.608 36.7967 27.3639 37.5 26.0116 37.5C24.6593 37.5 23.4153 36.7966 22.7119 35.6066L18.9794 29.3317H10.6485C7.45713 29.3317 4.6985 27.1681 3.99518 24.0846L0.479329 8.88451C-0.00741127 6.82888 0.479329 4.71925 1.77766 3.09637C3.07599 1.41953 5.02333 0.5 7.13296 0.5H44.8899ZM15.412 18.0262C17.1149 18.0262 18.4955 16.6456 18.4955 14.9427C18.4955 13.2399 17.1149 11.8593 15.412 11.8593C13.7091 11.8593 12.3289 13.2399 12.3289 14.9427C12.3289 16.6456 13.7091 18.0262 15.412 18.0262ZM29.0948 14.9427C29.0948 16.6456 27.7142 18.0262 26.0113 18.0262C24.3085 18.0262 22.9279 16.6456 22.9279 14.9427C22.9279 13.2399 24.3085 11.8593 26.0113 11.8593C27.7142 11.8593 29.0948 13.2399 29.0948 14.9427ZM36.6151 18.0262C38.318 18.0262 39.6982 16.6456 39.6982 14.9427C39.6982 13.2399 38.318 11.8593 36.6151 11.8593C34.9123 11.8593 33.5316 13.2399 33.5316 14.9427C33.5316 16.6456 34.9123 18.0262 36.6151 18.0262Z" fill="black"/>
</g>
<defs>
<clipPath id="clip0_435_1226">
<rect width="51.4115" height="37" fill="white" transform="translate(0.294189 0.5)"/>
</clipPath>
</defs>
</svg>
