<svg width="30" height="30" viewBox="0 0 30 30" fill="none" xmlns="http://www.w3.org/2000/svg">
<g clip-path="url(#clip0_516_2011)">
<g clip-path="url(#clip1_516_2011)">
<path d="M3.64111 25.3873L5.63585 20.7934C4.10977 18.6271 3.42673 15.9783 3.71491 13.3441C4.00309 10.7099 5.24269 8.27145 7.20106 6.48632C9.15944 4.70119 11.702 3.69211 14.3515 3.64845C17.001 3.60479 19.5754 4.52955 21.5916 6.24919C23.6077 7.96883 24.9269 10.3651 25.3018 12.9884C25.6766 15.6116 25.0812 18.2815 23.6273 20.4969C22.1734 22.7124 19.961 24.3211 17.4053 25.0212C14.8495 25.7212 12.1262 25.4646 9.74622 24.2993L3.64111 25.3873" stroke="#398D78" stroke-width="2.41786" stroke-linecap="round" stroke-linejoin="round"/>
<path d="M10.8948 12.0893C10.8948 12.2496 10.9585 12.4033 11.0718 12.5167C11.1852 12.6301 11.3389 12.6937 11.4992 12.6937C11.6596 12.6937 11.8133 12.6301 11.9267 12.5167C12.04 12.4033 12.1037 12.2496 12.1037 12.0893V10.8803C12.1037 10.72 12.04 10.5663 11.9267 10.4529C11.8133 10.3396 11.6596 10.2759 11.4992 10.2759C11.3389 10.2759 11.1852 10.3396 11.0718 10.4529C10.9585 10.5663 10.8948 10.72 10.8948 10.8803V12.0893ZM10.8948 12.0893C10.8948 13.6924 11.5316 15.2299 12.6652 16.3635C13.7988 17.4971 15.3363 18.1339 16.9394 18.1339H18.1484C18.3087 18.1339 18.4624 18.0702 18.5758 17.9569C18.6891 17.8435 18.7528 17.6898 18.7528 17.5295C18.7528 17.3692 18.6891 17.2154 18.5758 17.102C18.4624 16.9887 18.3087 16.925 18.1484 16.925H16.9394C16.7791 16.925 16.6254 16.9887 16.512 17.102C16.3987 17.2154 16.335 17.3692 16.335 17.5295C16.335 17.6898 16.3987 17.8435 16.512 17.9569C16.6254 18.0702 16.7791 18.1339 16.9394 18.1339" stroke="#398D78" stroke-width="2.41786" stroke-linecap="round" stroke-linejoin="round"/>
</g>
</g>
<defs>
<clipPath id="clip0_516_2011">
<rect width="29.0144" height="29.0144" fill="white" transform="translate(0.0144043)"/>
</clipPath>
<clipPath id="clip1_516_2011">
<rect width="29.0144" height="29.0144" fill="white" transform="translate(0.0144043)"/>
</clipPath>
</defs>
</svg>
